<?xml version="1.0" standalone="no"?>
<!DOCTYPE svg PUBLIC "-//W3C//DTD SVG 20010904//EN"
 "http://www.w3.org/TR/2001/REC-SVG-20010904/DTD/svg10.dtd">
<svg version="1.0" xmlns="http://www.w3.org/2000/svg"
 width="2048.000000pt" height="2048.000000pt" viewBox="0 0 2048.000000 2048.000000"
 preserveAspectRatio="xMidYMid meet">
<metadata>
Created by potrace 1.14, written by Peter Selinger 2001-2017
</metadata>
<g transform="translate(0.000000,2048.000000) scale(0.100000,-0.100000)"
fill="#000000" stroke="none">
<path d="M9840 20434 c-243 -13 -437 -27 -575 -40 -2815 -267 -5380 -1682
-7126 -3930 -757 -975 -1343 -2108 -1700 -3289 -228 -754 -358 -1471 -421
-2330 -16 -225 -17 -1065 0 -1290 52 -699 137 -1247 292 -1863 719 -2862 2666
-5295 5310 -6631 1068 -541 2132 -864 3375 -1028 l210 -28 1035 0 1035 0 210
28 c1068 141 2003 400 2930 814 2292 1023 4155 2886 5178 5178 1121 2512 1183
5390 170 7945 -983 2481 -2924 4506 -5353 5585 -1118 497 -2226 770 -3505 865
-138 11 -939 21 -1065 14z m1330 -3434 c864 -33 1530 -150 2348 -412 l222 -72
-2 -1195 -3 -1195 -185 -118 c-102 -65 -189 -118 -194 -118 -6 0 -82 32 -170
71 -1018 453 -2134 647 -2981 519 -1175 -179 -1934 -1020 -2204 -2445 -177
-934 -153 -2119 60 -2967 163 -651 456 -1180 833 -1507 427 -371 932 -564
1596 -611 366 -25 670 -2 1110 86 513 103 1017 262 1551 490 108 46 201 84
207 84 6 0 93 -53 194 -118 l183 -118 3 -1127 2 -1127 -57 -26 c-86 -37 -478
-186 -633 -239 -1004 -344 -2007 -488 -3030 -435 -1470 77 -2628 532 -3484
1370 -561 550 -948 1187 -1227 2021 -198 593 -315 1217 -371 1994 -20 279 -17
1230 5 1505 75 931 239 1669 532 2390 610 1506 1694 2539 3166 3019 496 161
1043 257 1634 284 159 8 658 6 895 -3z"/>
</g>
</svg>
